<svg width="20" height="19" viewBox="0 0 20 19" fill="none" xmlns="http://www.w3.org/2000/svg">
<path fill-rule="evenodd" clip-rule="evenodd" d="M11.4519 6.5758H16.9819C18.3719 6.5758 19.4119 8.1558 19.0719 9.8058L17.8519 16.4958C17.742 17.5996 16.8662 18.4713 15.7619 18.5758H3.98186C2.86196 18.4895 1.96473 17.6133 1.85186 16.4958L0.551856 9.7858C0.251856 8.1358 1.29186 6.5558 2.68186 6.5558H8.68186L4.31186 1.3458C4.13294 0.997789 4.22486 0.571849 4.53137 0.328587C4.83788 0.0853257 5.27356 0.0925345 5.57186 0.345803L10.1119 5.6958L14.1119 0.345803C14.2415 0.160453 14.4427 0.0377391 14.6668 0.00734923C14.8909 -0.0230406 15.1176 0.0416616 15.2919 0.185803C15.649 0.461841 15.7201 0.972743 15.4519 1.3358L11.4519 6.5758ZM16.2819 16.2058L17.5019 9.5158C17.5963 9.10803 17.5047 8.67936 17.2519 8.3458C17.1877 8.25583 17.0907 8.19475 16.9819 8.1758H2.72186C2.613 8.19475 2.51599 8.25583 2.45186 8.3458C2.19899 8.67936 2.1074 9.10803 2.20186 9.5158L3.42186 16.2058C3.50186 16.6758 3.78186 16.9458 3.94186 16.9458H15.7619C15.9219 16.9458 16.2019 16.6758 16.2819 16.2058Z" fill="#959BA3"/>
<path d="M10.1519 9.7658C9.69898 9.7658 9.33186 10.1329 9.33186 10.5858V13.5858C9.33733 14.0348 9.70286 14.3958 10.1519 14.3958C10.6047 14.3958 10.9719 14.0287 10.9719 13.5758V10.5758C10.9664 10.1268 10.6009 9.76577 10.1519 9.7658Z" fill="#959BA3"/>
<path d="M6.00186 10.3458C5.88996 10.0546 5.62254 9.85216 5.31193 9.82343C5.00132 9.79471 4.70131 9.94472 4.53792 10.2104C4.37453 10.4762 4.37605 10.8116 4.54186 11.0758L6.18186 14.3458C6.31745 14.6246 6.60189 14.7999 6.91186 14.7958C7.0366 14.7991 7.16024 14.7716 7.27186 14.7158C7.46691 14.6191 7.61552 14.4489 7.68493 14.2425C7.75433 14.0362 7.73884 13.8107 7.64186 13.6158L6.00186 10.3458Z" fill="#959BA3"/>
<path d="M15.4619 9.9258C15.2674 9.82602 15.0409 9.80904 14.8338 9.87871C14.6267 9.94839 14.4565 10.0988 14.3619 10.2958L12.7219 13.5658C12.6249 13.7607 12.6094 13.9862 12.6788 14.1925C12.7482 14.3989 12.8968 14.5691 13.0919 14.6658C13.2037 14.7209 13.3272 14.7483 13.4519 14.7458C13.7618 14.7499 14.0463 14.5746 14.1819 14.2958L15.8519 11.0258C15.9475 10.8284 15.96 10.601 15.8867 10.3943C15.8135 10.1876 15.6604 10.0189 15.4619 9.9258Z" fill="#959BA3"/>
</svg>
