<svg width="21" height="21" viewBox="0 0 21 21" fill="none" xmlns="http://www.w3.org/2000/svg">
<path fill-rule="evenodd" clip-rule="evenodd" d="M0.5 10.0801C0.5 4.51309 5.01297 0.000118492 10.58 0.000118492C11.3206 -0.00360224 12.0591 0.0803143 12.78 0.250118C9.92684 1.06703 8.05951 3.79948 8.33498 6.75447C8.61045 9.70945 10.9507 12.0497 13.9057 12.3251C16.8606 12.6006 19.5931 10.7333 20.41 7.88012C20.5798 8.60103 20.6637 9.33949 20.66 10.0801C20.66 15.6471 16.147 20.1601 10.58 20.1601C5.01297 20.1601 0.5 15.6471 0.5 10.0801ZM9.04296 11.6163C6.42799 9.0038 6.04836 4.8978 8.14 1.85012C4.20314 3.01937 1.64688 6.81441 2.04276 10.9021C2.43865 14.9898 5.67565 18.2238 9.76373 18.6158C13.8518 19.0079 17.6444 16.4481 18.81 12.5101C15.7643 14.6046 11.6579 14.2288 9.04296 11.6163Z" fill="#959BA3"/>
</svg>
