<svg width="16" height="16" viewBox="0 0 16 16" fill="none" xmlns="http://www.w3.org/2000/svg">
<path d="M14.7742 0.5H9.60645C9.2056 0.5 8.88064 0.827916 8.88064 1.23242C8.88064 1.63693 9.2056 1.96484 9.60645 1.96484H12.8871L1.95161 13V9.55273C1.95161 9.14823 1.62666 8.82031 1.22581 8.82031C0.824955 8.82031 0.5 9.14823 0.5 9.55273V14.7676C0.505212 15.1699 0.827133 15.4947 1.22581 15.5H6.39355C6.7944 15.5 7.11935 15.1721 7.11935 14.7676C7.11935 14.3631 6.7944 14.0352 6.39355 14.0352H2.97742L14.0484 2.86328V6.44727C14.0484 6.85177 14.3733 7.17969 14.7742 7.17969C15.175 7.17969 15.5 6.85177 15.5 6.44727V1.23242C15.4948 0.830115 15.1729 0.50526 14.7742 0.5Z" fill="#404656"/>
</svg>
