<svg width="21" height="18" viewBox="0 0 21 18" fill="none" xmlns="http://www.w3.org/2000/svg">
<path fill-rule="evenodd" clip-rule="evenodd" d="M2.37 9.5H5.87C6.46674 9.5 7.03903 9.73705 7.46099 10.159C7.88295 10.581 8.12 11.1533 8.12 11.75V15.25C8.12 15.8467 7.88295 16.419 7.46099 16.841C7.03903 17.2629 6.46674 17.5 5.87 17.5H2.37C1.12736 17.5 0.12 16.4926 0.12 15.25V11.75C0.12 10.5074 1.12736 9.5 2.37 9.5ZM5.87 16C6.28421 16 6.62 15.6642 6.62 15.25V11.75C6.62 11.3358 6.28421 11 5.87 11H2.37C1.95804 11.0054 1.62539 11.338 1.62 11.75V15.25C1.62539 15.662 1.95804 15.9946 2.37 16H5.87Z" fill="#959BA3"/>
<path d="M12.12 10.75C11.7058 10.75 11.37 11.0858 11.37 11.5C11.37 11.9142 11.7058 12.25 12.12 12.25H17.12C17.5342 12.25 17.87 11.9142 17.87 11.5C17.87 11.0858 17.5342 10.75 17.12 10.75H12.12Z" fill="#959BA3"/>
<path d="M20.12 14.75H12.12C11.7058 14.75 11.37 15.0858 11.37 15.5C11.37 15.9142 11.7058 16.25 12.12 16.25H20.12C20.5342 16.25 20.87 15.9142 20.87 15.5C20.87 15.0858 20.5342 14.75 20.12 14.75Z" fill="#959BA3"/>
<path fill-rule="evenodd" clip-rule="evenodd" d="M18.12 7.5H2.12C1.01543 7.5 0.12 6.60457 0.12 5.5V2.5C0.12 1.39543 1.01543 0.5 2.12 0.5H18.12C19.2246 0.5 20.12 1.39543 20.12 2.5V5.5C20.12 6.60457 19.2246 7.5 18.12 7.5ZM2.12 2C1.84386 2 1.62 2.22386 1.62 2.5V5.5C1.62 5.77614 1.84386 6 2.12 6H18.12C18.3961 6 18.62 5.77614 18.62 5.5V2.5C18.62 2.22386 18.3961 2 18.12 2H2.12Z" fill="#959BA3"/>
</svg>
