<svg width="19" height="18" viewBox="0 0 19 18" fill="none" xmlns="http://www.w3.org/2000/svg">
<path fill-rule="evenodd" clip-rule="evenodd" d="M2.75002 1.10049e-10H5.84002C6.4385 -5.91077e-06 7.01231 0.238419 7.43456 0.662541C7.8568 1.08666 8.09268 1.66153 8.09002 2.26V5.34C8.09002 6.58264 7.08266 7.59 5.84002 7.59H2.75002C1.50738 7.59 0.500022 6.58264 0.500022 5.34V2.26C0.497362 1.66153 0.73324 1.08666 1.15549 0.662541C1.57773 0.238419 2.15155 -5.91077e-06 2.75002 1.10049e-10ZM5.84002 6.08C6.25198 6.07461 6.58464 5.74196 6.59002 5.33V2.26C6.59002 1.84579 6.25424 1.51 5.84002 1.51H2.75002C2.33581 1.51 2.00002 1.84579 2.00002 2.26V5.33C2.00541 5.74196 2.33806 6.07461 2.75002 6.08H5.84002Z" fill="#959BA3"/>
<path fill-rule="evenodd" clip-rule="evenodd" d="M13.16 1.10049e-10H16.25C16.8485 -5.91077e-06 17.4223 0.238419 17.8446 0.662541C18.2668 1.08666 18.5027 1.66153 18.5 2.26V5.34C18.5 6.58264 17.4927 7.59 16.25 7.59H13.16C11.9174 7.59 10.91 6.58264 10.91 5.34V2.25C10.91 1.00736 11.9174 1.10049e-10 13.16 1.10049e-10ZM16.25 6.08C16.662 6.07461 16.9947 5.74196 17 5.33V2.26C17 1.84579 16.6643 1.51 16.25 1.51H13.16C12.7458 1.51 12.41 1.84579 12.41 2.26V5.33C12.4154 5.74196 12.7481 6.07461 13.16 6.08H16.25Z" fill="#959BA3"/>
<path fill-rule="evenodd" clip-rule="evenodd" d="M2.75002 10.41H5.84002C7.08266 10.41 8.09002 11.4174 8.09002 12.66V15.75C8.09002 16.9926 7.08266 18 5.84002 18H2.75002C2.15155 18 1.57773 17.7616 1.15549 17.3375C0.73324 16.9133 0.497362 16.3385 0.500022 15.74V12.66C0.500022 11.4174 1.50738 10.41 2.75002 10.41ZM5.84002 16.49C6.25424 16.49 6.59002 16.1542 6.59002 15.74V12.66C6.58464 12.248 6.25198 11.9154 5.84002 11.91H2.75002C2.33806 11.9154 2.00541 12.248 2.00002 12.66V15.74C2.00002 16.1542 2.33581 16.49 2.75002 16.49H5.84002Z" fill="#959BA3"/>
<path fill-rule="evenodd" clip-rule="evenodd" d="M13.16 10.41H16.25C17.4927 10.41 18.5 11.4174 18.5 12.66V15.74C18.5027 16.3385 18.2668 16.9133 17.8446 17.3375C17.4223 17.7616 16.8485 18 16.25 18H13.16C12.5615 18 11.9877 17.7616 11.5655 17.3375C11.1432 16.9133 10.9074 16.3385 10.91 15.74V12.66C10.91 11.4174 11.9174 10.41 13.16 10.41ZM16.25 16.49C16.6642 16.49 17 16.1542 17 15.74V12.66C16.9946 12.248 16.662 11.9154 16.25 11.91H13.16C12.7481 11.9154 12.4154 12.248 12.41 12.66V15.74C12.41 16.1542 12.7458 16.49 13.16 16.49H16.25Z" fill="#959BA3"/>
</svg>
