<svg width="21" height="18" viewBox="0 0 21 18" fill="none" xmlns="http://www.w3.org/2000/svg">
<path d="M0.119995 11.75C0.119995 10.5074 1.12735 9.5 2.37 9.5H5.87C7.11264 9.5 8.12 10.5074 8.12 11.75V15.25C8.12 16.4926 7.11264 17.5 5.87 17.5H2.37C1.12735 17.5 0.119995 16.4926 0.119995 15.25V11.75Z" fill="#6E6AF0"/>
<path d="M12.12 10.75C11.7058 10.75 11.37 11.0858 11.37 11.5C11.37 11.9142 11.7058 12.25 12.12 12.25H17.12C17.5342 12.25 17.87 11.9142 17.87 11.5C17.87 11.0858 17.5342 10.75 17.12 10.75H12.12Z" fill="#6E6AF0"/>
<path d="M20.12 14.75H12.12C11.7058 14.75 11.37 15.0858 11.37 15.5C11.37 15.9142 11.7058 16.25 12.12 16.25H20.12C20.5342 16.25 20.87 15.9142 20.87 15.5C20.87 15.0858 20.5342 14.75 20.12 14.75Z" fill="#6E6AF0"/>
<path d="M0.119995 2.5C0.119995 1.39543 1.01543 0.5 2.12 0.5H18.12C19.2246 0.5 20.12 1.39543 20.12 2.5V5.5C20.12 6.60457 19.2246 7.5 18.12 7.5H2.12C1.01543 7.5 0.119995 6.60457 0.119995 5.5V2.5Z" fill="#6E6AF0"/>
</svg>
