<svg width="17" height="17" viewBox="0 0 17 17" fill="none" xmlns="http://www.w3.org/2000/svg">
<path fill-rule="evenodd" clip-rule="evenodd" d="M15.5888 11.9001C15.2186 11.5834 15.0054 11.1206 15.0055 10.6334V6.61675C15.0055 3.32508 12.0221 0.666748 8.33881 0.666748C4.65547 0.666748 1.67214 3.32508 1.67214 6.61675V10.6334C1.67217 11.1206 1.45904 11.5834 1.08881 11.9001C-0.169527 13.0251 0.72214 14.9417 2.50547 14.9417H5.67214C6.07617 16.0671 7.14314 16.8177 8.33881 16.8177C9.53447 16.8177 10.6014 16.0671 11.0055 14.9417H14.1721C15.9555 14.9417 16.8471 13.0251 15.5888 11.9001ZM8.33881 15.5667C7.8428 15.5649 7.3754 15.3343 7.07214 14.9417H9.57214C9.27852 15.3281 8.82397 15.5584 8.33881 15.5667ZM14.1805 13.6917C14.4834 13.7192 14.7719 13.5567 14.9055 13.2834C14.9703 13.1188 14.9113 12.9312 14.7638 12.8334C14.1359 12.2733 13.7729 11.4747 13.7638 10.6334V6.61675C13.7638 4.02508 11.3305 1.91675 8.34714 1.91675C5.36381 1.91675 2.93047 4.02508 2.93047 6.61675V10.6334C2.92133 11.4747 2.55834 12.2733 1.93047 12.8334C1.77991 12.9287 1.7172 13.1168 1.78047 13.2834C1.91405 13.5567 2.20251 13.7192 2.50547 13.6917H14.1805Z" fill="#959BA3"/>
</svg>
