<svg width="16" height="17" viewBox="0 0 16 17" fill="none" xmlns="http://www.w3.org/2000/svg">
<path d="M8.42686 2.35116L9.06019 1.71782C9.28966 1.47157 9.28289 1.08782 9.04488 0.849807C8.80687 0.611797 8.42312 0.605026 8.17686 0.834492L6.51019 2.50116C6.26648 2.74517 6.26648 3.14048 6.51019 3.38449L8.17686 5.05116C8.42087 5.29487 8.81618 5.29487 9.06019 5.05116C9.3039 4.80714 9.3039 4.41184 9.06019 4.16782L8.51019 3.61783C11.3163 3.96542 13.5032 6.21768 13.7681 9.03284C14.0329 11.848 12.3044 14.4686 9.61228 15.3334C6.92019 16.1982 3.98888 15.0746 2.56464 12.6319C1.14041 10.1892 1.60648 7.08465 3.68519 5.16782C3.88663 4.9283 3.87985 4.57671 3.66933 4.34513C3.4588 4.11355 3.10944 4.07339 2.85186 4.25116C0.317012 6.58599 -0.237049 10.3767 1.5235 13.3394C3.28405 16.302 6.87841 17.6276 10.141 16.5173C13.4035 15.4071 15.4433 12.1643 15.0313 8.74269C14.6193 5.32111 11.868 2.6552 8.43519 2.35116H8.42686Z" fill="#404656"/>
</svg>
