<svg width="17" height="20" viewBox="0 0 17 20" fill="none" xmlns="http://www.w3.org/2000/svg">
<path d="M15.29 5C14.8537 5 14.5 5.35369 14.5 5.79V14.63C14.5 16.4912 12.9912 18 11.13 18H5.45C3.5888 18 2.08 16.4912 2.08 14.63V5.79C2.08 5.35369 1.72631 5 1.29 5C0.853695 5 0.5 5.35369 0.5 5.79V14.63C0.52742 17.3719 2.75799 19.5801 5.5 19.58H11.18C13.9025 19.5529 16.1029 17.3525 16.13 14.63V5.79C16.1304 5.57152 16.0404 5.36262 15.8812 5.21294C15.7221 5.06326 15.508 4.98617 15.29 5Z" fill="#959BA3"/>
<path fill-rule="evenodd" clip-rule="evenodd" d="M15.29 3.58H1.29C0.853695 3.58 0.5 3.22631 0.5 2.79C0.5 2.35369 0.853695 2 1.29 2H3.94L5.12 0.72C5.57107 0.261411 6.18675 0.00217586 6.83 1.83491e-10H9.75C10.3839 -7.84652e-06 10.9918 0.25179 11.44 0.7L12.64 2H15.29C15.7263 2 16.08 2.35369 16.08 2.79C16.08 3.22631 15.7263 3.58 15.29 3.58ZM9.75 1.58H6.83C6.63008 1.58007 6.43744 1.65499 6.29 1.79L6.1 1.99H10.48L10.29 1.79C10.1436 1.65326 9.95029 1.57807 9.75 1.58Z" fill="#959BA3"/>
<path d="M4.54 6.79V9.79C4.54 10.2042 4.87579 10.54 5.29 10.54C5.70421 10.54 6.04 10.2042 6.04 9.79V6.79C6.04 6.37579 5.70421 6.04 5.29 6.04C4.87579 6.04 4.54 6.37579 4.54 6.79Z" fill="#959BA3"/>
<path d="M7.54 6.79V14.79C7.54 15.2042 7.87579 15.54 8.29 15.54C8.70421 15.54 9.04 15.2042 9.04 14.79V6.79C9.04 6.37579 8.70421 6.04 8.29 6.04C7.87579 6.04 7.54 6.37579 7.54 6.79Z" fill="#959BA3"/>
<path d="M10.54 6.79V9.79C10.54 10.2042 10.8758 10.54 11.29 10.54C11.7042 10.54 12.04 10.2042 12.04 9.79V6.79C12.04 6.37579 11.7042 6.04 11.29 6.04C10.8758 6.04 10.54 6.37579 10.54 6.79Z" fill="#959BA3"/>
</svg>
