<svg width="16" height="15" viewBox="0 0 16 15" fill="none" xmlns="http://www.w3.org/2000/svg">
<path d="M6.14167 1.75847H1.14167C0.796489 1.75847 0.516667 2.03829 0.516667 2.38347C0.516667 2.72865 0.796489 3.00847 1.14167 3.00847H6.14167C6.48685 3.00847 6.76667 2.72865 6.76667 2.38347C6.76667 2.03829 6.48685 1.75847 6.14167 1.75847Z" fill="#404656"/>
<path fill-rule="evenodd" clip-rule="evenodd" d="M2.73333 7.9168H1.14167C0.796489 7.9168 0.516667 7.63698 0.516667 7.2918C0.516667 6.94663 0.796489 6.6668 1.14167 6.6668H2.73333C3.03736 5.8155 3.90987 5.30646 4.80057 5.46073C5.69127 5.61501 6.34175 6.38784 6.34175 7.2918C6.34175 8.19577 5.69127 8.9686 4.80057 9.12287C3.90987 9.27715 3.03736 8.76811 2.73333 7.9168ZM4.475 7.90014C4.81098 7.90014 5.08333 7.62778 5.08333 7.2918C5.08333 6.95583 4.81098 6.68347 4.475 6.68347C4.31366 6.68347 4.15893 6.74756 4.04485 6.86165C3.93076 6.97573 3.86667 7.13046 3.86667 7.2918C3.86667 7.62778 4.13903 7.90014 4.475 7.90014Z" fill="#404656"/>
<path fill-rule="evenodd" clip-rule="evenodd" d="M10.9083 2.97514C10.6237 3.64754 9.97163 4.09093 9.24166 4.10847V4.05014C8.27532 4.05384 7.4674 3.31629 7.38327 2.3536C7.29915 1.39091 7.96688 0.524406 8.91923 0.360433C9.87157 0.19646 10.7907 0.78975 11.0333 1.72514C11.0693 1.72042 11.1057 1.72042 11.1417 1.72514H14.4333C14.7785 1.72514 15.0583 2.00496 15.0583 2.35014C15.0583 2.69532 14.7785 2.97514 14.4333 2.97514H11.1C11.0364 2.98307 10.972 2.98307 10.9083 2.97514ZM9.85306 2.18928C9.83828 1.86291 9.56836 1.60649 9.24166 1.60847V1.64181C9.07429 1.6437 8.91509 1.71448 8.80156 1.83748C8.68803 1.96047 8.63019 2.12481 8.64166 2.29181C8.68195 2.61601 8.97112 2.85051 9.29666 2.82296C9.6222 2.79541 9.86784 2.51564 9.85306 2.18928Z" fill="#404656"/>
<path d="M6.14167 11.8418H1.14167C0.787284 11.8418 0.5 12.1291 0.5 12.4835C0.5 12.8379 0.787284 13.1251 1.14167 13.1251H6.14167C6.48684 13.1251 6.76667 12.8453 6.76667 12.5001C6.76667 12.155 6.48684 11.8751 6.14167 11.8751V11.8418Z" fill="#404656"/>
<path fill-rule="evenodd" clip-rule="evenodd" d="M11.25 11.8418H14.475V11.8751C14.8202 11.8751 15.1 12.155 15.1 12.5001C15.1 12.8453 14.8202 13.1251 14.475 13.1251H11.1417C10.7604 13.9355 9.85352 14.3564 8.98853 14.1245C8.12355 13.8925 7.54889 13.0743 7.62422 12.182C7.69955 11.2896 8.40324 10.5793 9.29486 10.4957C10.1865 10.412 11.01 10.979 11.25 11.8418ZM8.90707 12.5721C9.00386 12.7991 9.22823 12.9452 9.47501 12.9418C9.80772 12.9372 10.075 12.6662 10.075 12.3335C10.075 12.0867 9.92585 11.8643 9.69751 11.7707C9.46916 11.677 9.20687 11.7306 9.03356 11.9063C8.86025 12.0821 8.81028 12.3451 8.90707 12.5721Z" fill="#404656"/>
<path d="M14.475 6.6668H7.80834C7.46316 6.6668 7.18334 6.94663 7.18334 7.2918C7.18334 7.63698 7.46316 7.9168 7.80834 7.9168H14.475C14.8202 7.9168 15.1 7.63698 15.1 7.2918C15.1 6.94663 14.8202 6.6668 14.475 6.6668Z" fill="#404656"/>
</svg>
